<svg width="560" height="280" viewBox="0 0 560 280" fill="none" xmlns="http://www.w3.org/2000/svg">
  <g opacity="0.78">
    <path d="M20 250C78 210 98 160 140 122C166 98 180 82 210 60C230 88 242 108 264 140C294 120 316 92 346 64C380 112 410 156 452 210C472 194 490 178 514 160C520 192 530 220 540 250H20Z" fill="#C9C3B6"/>
    <path d="M60 250C98 220 126 192 154 168C188 138 206 106 228 82C250 110 264 132 284 162C310 144 334 126 360 100C388 140 410 176 438 214C460 200 482 188 506 174C512 194 518 218 522 250H60Z" fill="#AFA89C" fill-opacity="0.7"/>
  </g>
</svg>
